<?xml version="1.0" encoding="UTF-8" standalone="no"?>
<!-- Created with Inkscape (http://www.inkscape.org/) -->

<svg
   xmlns:dc="http://purl.org/dc/elements/1.1/"
   xmlns:cc="http://creativecommons.org/ns#"
   xmlns:rdf="http://www.w3.org/1999/02/22-rdf-syntax-ns#"
   xmlns:svg="http://www.w3.org/2000/svg"
   xmlns="http://www.w3.org/2000/svg"
   xmlns:sodipodi="http://sodipodi.sourceforge.net/DTD/sodipodi-0.dtd"
   xmlns:inkscape="http://www.inkscape.org/namespaces/inkscape"
   width="88mm"
   height="22mm"
   viewBox="0 0 88 22"
   version="1.1"
   id="svg8"
   inkscape:version="0.92.4 (5da689c313, 2019-01-14)"
   sodipodi:docname="laCompra-logo-blanco.svg">
  <defs
     id="defs2" />
  <sodipodi:namedview
     id="base"
     pagecolor="#ffffff"
     bordercolor="#666666"
     borderopacity="1.0"
     inkscape:pageopacity="0.0"
     inkscape:pageshadow="2"
     inkscape:zoom="1.979899"
     inkscape:cx="200.81072"
     inkscape:cy="166.24547"
     inkscape:document-units="mm"
     inkscape:current-layer="layer1"
     showgrid="false"
     inkscape:window-width="1600"
     inkscape:window-height="837"
     inkscape:window-x="-8"
     inkscape:window-y="-8"
     inkscape:window-maximized="1" />
  <metadata
     id="metadata5">
    <rdf:RDF>
      <cc:Work
         rdf:about="">
        <dc:format>image/svg+xml</dc:format>
        <dc:type
           rdf:resource="http://purl.org/dc/dcmitype/StillImage" />
        <dc:title></dc:title>
      </cc:Work>
    </rdf:RDF>
  </metadata>
  <g
     inkscape:label="Capa 1"
     inkscape:groupmode="layer"
     id="layer1"
     transform="translate(0,-275)">
    <g
       aria-label="La Compra"
       transform="matrix(0.26458333,0,0,0.26458333,-12.923909,197.76376)"
       style="font-style:normal;font-variant:normal;font-weight:normal;font-stretch:normal;font-size:40px;line-height:1.25;font-family:protos;-inkscape-font-specification:protos;letter-spacing:0px;word-spacing:0px;fill:#ffffff;fill-opacity:1;stroke:none"
       id="flowRoot815">
      <path
         d="m 61.082031,370.33521 q -0.984375,0 -2.15625,-0.28125 -1.171875,-0.23437 -2.203125,-0.79687 -1.03125,-0.51563 -1.734375,-1.40625 -0.703125,-0.84375 -0.703125,-2.0625 0,-0.5625 0.234375,-1.03125 0.234375,-0.46875 0.609375,-0.89063 0.375,-0.42187 0.796875,-0.75 0.421875,-0.375 0.796875,-0.75 0.796875,-0.79687 1.3125,-1.875 0.515625,-1.07812 0.890625,-2.15625 2.25,-6.51562 4.21875,-13.17187 2.015625,-6.70313 3.84375,-13.45313 1.828125,-6.75 3.515625,-13.5 1.734375,-6.79687 3.46875,-13.45312 0.28125,-1.07813 0.46875,-2.39063 0.1875,-1.35937 0.515625,-2.48437 0.328125,-1.17188 0.890625,-1.96875 0.609375,-0.79688 1.640625,-0.79688 0.375,0 1.171875,0.23438 1.5,0.5625 2.859375,1.17187 1.40625,0.60938 2.484375,1.35938 1.078125,0.70312 1.734375,1.54687 0.65625,0.84375 0.65625,1.78125 0,0.5625 -0.1875,1.45313 -0.1875,0.89062 -0.46875,1.875 -0.28125,0.98437 -0.5625,1.92187 -0.28125,0.89063 -0.46875,1.5 -1.125,3.75 -2.4375,8.0625 -1.265625,4.3125 -2.578125,8.85938 -1.3125,4.5 -2.671875,9.04687 -1.3125,4.5 -2.53125,8.71875 -1.21875,4.21875 -2.34375,7.92188 -1.078125,3.70312 -1.921875,6.5625 3.703125,0 7.359375,-0.375 3.65625,-0.375 7.3125,-0.89063 3.65625,-0.5625 7.359375,-1.07812 3.75,-0.5625 3.328125,3.9375 -0.421875,4.5 -3.09375,5.0625 -2.671875,0.51562 -5.765625,1.07812 -3.046875,0.51563 -6.234375,1.03125 -3.140625,0.51563 -6.1875,0.9375 -3.046875,0.46875 -5.671875,0.79688 -2.578125,0.32812 -4.59375,0.51562 -1.96875,0.1875 -2.953125,0.1875 z"
         style="font-style:normal;font-variant:normal;font-weight:normal;font-stretch:normal;font-size:96px;font-family:'Black Street';-inkscape-font-specification:'Black Street';fill:#ffffff;fill-opacity:1"
         id="path823"
         inkscape:connector-curvature="0" />
      <path
         d="m 113.76953,321.58521 q 0.65625,-0.51562 1.40625,-0.75 0.75,-0.23437 1.54688,-0.23437 1.59375,0 2.85937,0.89062 1.26563,0.89063 1.26563,2.57813 0,0.9375 -0.375,2.48437 -0.32813,1.54688 -0.89063,3.42188 -0.5625,1.875 -1.26562,3.89062 -0.70313,2.01563 -1.35938,3.9375 -0.65625,1.875 -1.26562,3.51563 -0.5625,1.59375 -0.89063,2.625 -0.51562,4.26562 3.32813,1.64062 3.84375,-2.625 5.4375,-5.25 1.59375,-2.67187 2.01562,-3.09375 0.46875,-0.42187 1.21875,-0.42187 0.89063,0 1.64063,0.9375 0.79687,0.9375 0,2.53125 -0.75,1.59375 -0.98438,1.92187 -6.75,11.15625 -11.57812,11.85938 -4.82813,0.65625 -7.17188,-4.03125 -4.07812,3.28125 -5.90625,3.84375 -1.78125,0.51562 -3.703124,0.51562 -2.71875,0 -4.453125,-1.07812 -1.734375,-1.07813 -2.71875,-2.8125 -0.984375,-1.78125 -1.359375,-3.98438 -0.375,-2.20312 -0.375,-4.45312 0,-4.07813 1.546875,-7.82813 1.546875,-3.79687 4.21875,-6.70312 2.671875,-2.90625 6.281249,-4.64063 3.65625,-1.73437 7.82813,-1.73437 0.9375,0 1.82812,0.14062 0.9375,0.0937 1.875,0.28125 z m -7.6875,8.76563 q -3.60937,2.29687 -5.48437,6.46875 -1.828129,4.125 -1.125004,6.9375 0.703124,2.8125 4.968754,-2.01563 4.3125,-4.82812 5.10937,-8.10937 0.84375,-3.32813 0.51563,-4.45313 -0.32813,-1.17187 -3.98438,1.17188 z"
         style="font-style:normal;font-variant:normal;font-weight:normal;font-stretch:normal;font-size:96px;font-family:'Black Street';-inkscape-font-specification:'Black Street';fill:#ffffff;fill-opacity:1"
         id="path825"
         inkscape:connector-curvature="0" />
      <path
         d="m 195.33203,340.38209 q 0.89063,-0.5625 1.6875,-0.5625 1.26563,0 1.73438,1.40625 0.51562,1.35937 0.51562,3.28125 0,1.54687 -0.51562,3.09375 -0.51563,1.5 -1.35938,2.95312 -0.79687,1.40625 -1.82812,2.71875 -1.03125,1.26563 -2.01563,2.34375 -2.57812,2.67188 -5.71875,4.78125 -3.14062,2.10938 -6.65625,3.60938 -3.46875,1.45312 -7.17187,2.25 -3.65625,0.79687 -7.40625,0.79687 -5.34375,0 -9,-1.64062 -3.60938,-1.6875 -5.85938,-4.5 -2.20312,-2.8125 -3.14062,-6.46875 -0.9375,-3.70313 -0.9375,-7.73438 0.0469,-4.03125 0.84375,-8.10937 0.84375,-4.125 2.20312,-7.78125 1.45313,-3.9375 3.65625,-7.96875 2.25,-4.03125 5.10938,-7.78125 2.85937,-3.75 6.28125,-7.03125 3.46875,-3.32813 7.35937,-5.76563 3.9375,-2.4375 8.20313,-3.84375 4.3125,-1.40625 8.85937,-1.40625 2.48438,0 4.6875,0.70313 2.25,0.70312 3.98438,2.10937 1.73437,1.35938 2.71875,3.375 1.03125,2.01563 1.03125,4.64063 0,2.90625 -0.70313,5.57812 -0.70312,2.67188 -1.875,4.96875 -1.17187,2.29688 -2.76562,4.17188 -1.54688,1.82812 -3.28125,3.1875 -1.6875,1.3125 -3.46875,2.0625 -1.78125,0.70312 -3.375,0.70312 -1.45313,0 -2.67188,-0.60937 -1.21875,-0.60938 -2.0625,-1.92188 -0.84375,-1.35937 -1.26562,-3.42187 -0.42188,-2.10938 -0.23438,-5.01563 0.14063,-1.6875 0.9375,-2.625 0.79688,-0.98437 1.92188,-1.54687 1.17187,-0.60938 2.48437,-0.98438 1.3125,-0.375 2.39063,-0.89062 1.125,-0.5625 1.82812,-1.35938 0.75,-0.84375 0.70313,-2.29687 0,-0.46875 -0.0937,-0.70313 -0.32813,-0.23437 -0.65625,-0.23437 -0.28125,-0.0469 -0.65625,-0.0469 -3,0 -6.09375,1.45313 -3.09375,1.45312 -6.04688,3.98437 -2.95312,2.48438 -5.71875,5.8125 -2.71875,3.32813 -5.01562,7.07813 -2.29688,3.75 -4.07813,7.73437 -1.73437,3.98438 -2.76562,7.73438 -1.03125,3.75 -1.21875,7.07812 -0.1875,3.32813 0.70312,5.85938 0.89063,2.48437 2.90625,3.9375 2.01563,1.45312 5.39063,1.45312 5.01562,0 8.71875,-1.17187 3.70312,-1.21875 6.375,-3.09375 2.71875,-1.875 4.59375,-4.07813 1.92187,-2.25 3.28125,-4.3125 1.40625,-2.10937 2.4375,-3.70312 1.07812,-1.64063 2.10937,-2.25 z"
         style="font-style:normal;font-variant:normal;font-weight:normal;font-stretch:normal;font-size:96px;font-family:'Black Street';-inkscape-font-specification:'Black Street';fill:#ffffff;fill-opacity:1"
         id="path827"
         inkscape:connector-curvature="0" />
      <path
         d="m 225.80078,323.64771 q 1.96875,2.10938 2.57813,5.01563 0.65625,2.85937 0.65625,5.67187 0,1.73438 -0.14063,3.46875 -0.14062,1.6875 -1.125,4.875 3.5625,-1.17187 5.29688,-3 1.78125,-1.875 2.67187,-1.875 0.75,0 1.45313,0.46875 0.70312,0.42188 0.70312,1.26563 0,0.375 -0.28125,0.89062 -0.23437,0.46875 -0.60937,0.9375 -0.32813,0.46875 -0.70313,0.89063 -0.375,0.42187 -0.65625,0.70312 -1.07812,1.07813 -2.39062,2.15625 -1.26563,1.07813 -2.71875,2.01563 -1.40625,0.89062 -2.90625,1.59375 -1.5,0.70312 -3,1.07812 -2.29688,3 -5.625,4.73438 -3.32813,1.73437 -7.125,1.73437 -2.8125,0 -4.96875,-1.07812 -2.10938,-1.07813 -3.5625,-2.85938 -1.40625,-1.82812 -2.10938,-4.17187 -0.75,-2.39063 -0.75,-4.96875 0,-1.45313 0.42188,-3.32813 0.42187,-1.875 1.125,-3.70312 0.75,-1.82813 1.73437,-3.42188 1.03125,-1.64062 2.15625,-2.53125 0.51563,-2.29687 1.6875,-4.07812 1.21875,-1.78125 2.85938,-3 1.6875,-1.26563 3.75,-1.875 2.10937,-0.65625 4.40625,-0.65625 2.01562,0 3.89062,0.79687 1.92188,0.79688 3.28125,2.25 z m -10.92187,9.98438 q 0,1.03125 0.28125,2.15625 0.32812,1.125 0.84375,2.25 0.51562,1.07812 1.17187,2.0625 0.70313,0.9375 1.45313,1.59375 4.21875,-2.48438 3.375,-8.10938 -0.79688,-5.625 -3.9375,-4.59375 -3.14063,0.98438 -3.1875,4.64063 z m -6.1875,9.09375 q 0.0469,0.70312 0.28125,1.64062 0.23437,0.9375 0.65625,1.82813 0.46875,0.89062 1.07812,1.5 0.65625,0.60937 1.45313,0.60937 0.75,0 1.54687,-0.23437 -1.59375,-0.98438 -2.85937,-2.34375 -1.21875,-1.35938 -2.15625,-3 z"
         style="font-style:normal;font-variant:normal;font-weight:normal;font-stretch:normal;font-size:96px;font-family:'Black Street';-inkscape-font-specification:'Black Street';fill:#ffffff;fill-opacity:1"
         id="path829"
         inkscape:connector-curvature="0" />
      <path
         d="m 250.69141,326.03834 q 0.5625,-0.65625 1.125,-1.35938 0.60937,-0.70312 1.92187,-1.6875 1.35938,-1.03125 3.65625,-0.84375 2.34375,0.1875 3.60938,2.8125 2.4375,-4.03125 6.04687,-5.76562 3.65625,-1.73438 5.4375,-1.73438 1.40625,0 2.48438,0.5625 1.07812,0.5625 1.59375,1.875 0.51562,1.26563 0.32812,3.375 -0.14062,2.10938 -1.21875,5.25 -0.1875,0.5625 -0.70312,1.82813 -0.46875,1.26562 -1.125,2.90625 -0.60938,1.64062 -3.1875,7.54687 -2.53125,5.85938 -1.6875,6.5625 0.84375,0.70313 4.3125,-3.51562 3.51562,-4.26563 4.35937,-5.15625 0.89063,-0.89063 1.3125,-1.21875 0.60938,-0.51563 1.125,-0.70313 0.51563,-0.23437 1.3125,-0.23437 0.79688,0 1.59375,0.60937 0.79688,0.60938 0.79688,1.5 0,0.65625 -0.42188,1.26563 -0.42187,0.5625 -0.79687,1.125 -2.4375,3.5625 -7.54688,8.90625 -5.0625,5.34375 -8.71875,5.76562 -5.4375,0.51563 -6.14062,-3.70312 -0.70313,-4.26563 3,-13.07813 3.75,-8.8125 0.32812,-8.4375 -3.42187,0.32813 -11.01562,18.46875 -0.28125,0.84375 -2.01563,2.8125 -1.73437,1.92188 -3.60937,0.65625 -1.875,-1.26562 -1.03125,-4.82812 0.84375,-3.60938 1.54687,-5.67188 0.70313,-2.0625 1.03125,-4.96875 0.375,-2.90625 -0.89062,-3.23437 -1.26563,-0.32813 -3.70313,5.25 -2.4375,5.53125 -3.79687,10.59375 -1.3125,5.01562 -3.375,6.375 -2.0625,1.35937 -4.07813,0.51562 -2.01562,-0.89062 0.32813,-11.8125 2.34375,-10.92187 3.98437,-14.34375 1.6875,-3.46875 3.79688,-4.92187 2.10937,-1.45313 6.14062,-0.9375 4.03125,0.46875 3.89063,1.59375 z"
         style="font-style:normal;font-variant:normal;font-weight:normal;font-stretch:normal;font-size:96px;font-family:'Black Street';-inkscape-font-specification:'Black Street';fill:#ffffff;fill-opacity:1"
         id="path831"
         inkscape:connector-curvature="0" />
      <path
         d="m 279.51953,363.39771 q -2.95312,7.875 -3.79687,8.10938 -0.89063,0.28125 -1.78125,0.32812 -0.9375,0.0937 -1.64063,0.0937 -0.79687,0 -1.59375,-0.0937 -0.79687,-0.0469 -1.45312,-0.375 -0.65625,-0.28125 -1.07813,-0.89062 -0.42187,-0.5625 -0.42187,-1.59375 0,-0.32813 0.51562,-1.92188 0.46875,-1.64062 3.04688,-9.04687 2.57812,-7.45313 3.28125,-9.375 0.65625,-1.96875 0.9375,-2.76563 0.9375,-2.67187 1.82812,-5.29687 0.84375,-2.67188 2.67188,-8.71875 1.82812,-6.04688 2.10937,-7.21875 0.32813,-1.17188 0.60938,-2.10938 0.28125,-0.9375 0.42187,-1.125 0.375,-0.51562 1.17188,-0.9375 0.79687,-0.46875 1.73437,-0.75 0.9375,-0.32812 1.82813,-0.46875 0.9375,-0.1875 1.54687,-0.1875 0.60938,0 1.26563,0.14063 0.65625,0.0937 1.21875,0.375 0.5625,0.28125 0.89062,0.79687 0.375,0.46875 0.42188,1.21875 1.3125,-0.51562 2.67187,-0.84375 1.35938,-0.375 2.76563,-0.375 2.0625,0 3.75,0.65625 1.73437,0.65625 2.95312,1.875 1.21875,1.21875 1.875,2.90625 0.65625,1.6875 0.65625,3.75 0,2.53125 -0.89062,5.15625 -0.84375,2.57813 -4.26563,6.89063 -3.375,4.26562 -9.75,7.875 -6.375,3.5625 -8.53125,3.79687 -0.51562,0.23438 -0.89062,0.51563 -0.375,0.23437 -0.60938,0.75 -0.46875,0.98437 -3.46875,8.85937 z m 19.125,-34.125 q -0.28125,-0.79687 -1.45312,-0.79687 -0.79688,0 -1.875,0.32812 -1.03125,0.32813 -2.01563,0.75 -0.9375,0.42188 -1.73437,0.89063 -0.75,0.42187 -0.98438,0.70312 -0.28125,0.28125 -0.70312,1.26563 -0.42188,0.9375 -0.89063,2.20312 -0.46875,1.26563 -0.9375,2.76563 -0.46875,1.45312 -0.89062,2.8125 -0.375,1.35937 -0.70313,2.48437 -0.28125,1.07813 -0.375,1.59375 1.07813,-0.65625 2.53125,-1.59375 1.5,-0.9375 3,-2.10937 1.54688,-1.21875 3,-2.57813 1.45313,-1.40625 2.48438,-2.85937 1.07812,-1.45313 1.5,-2.95313 0.46875,-1.5 0.0469,-2.90625 z"
         style="font-style:normal;font-variant:normal;font-weight:normal;font-stretch:normal;font-size:96px;font-family:'Black Street';-inkscape-font-specification:'Black Street';fill:#ffffff;fill-opacity:1"
         id="path833"
         inkscape:connector-curvature="0" />
      <path
         d="m 324.56641,329.36646 q -1.26563,0.23438 -2.53125,0.46875 -1.21875,0.23438 -2.4375,0.5625 -0.84375,1.54688 -1.64063,4.5 -0.79687,2.95313 -2.85937,7.17188 -2.0625,4.17187 -3.9375,7.03125 -1.875,2.8125 -3.32813,4.21875 -1.45312,1.35937 -3.1875,1.35937 -0.375,0 -0.89062,-0.0937 -0.51563,-0.14062 -0.98438,-0.375 -0.51562,-0.23437 -0.84375,-0.5625 -0.375,-0.375 -0.375,-0.79687 0,-0.14063 0.65625,-1.26563 0.60938,-1.125 1.59375,-2.85937 0.9375,-1.78125 4.45313,-8.39063 3.46875,-6.65625 3.46875,-8.48437 0,-0.9375 -0.14063,-1.92188 -0.14062,-0.98437 -0.14062,-1.96875 0,-0.375 0.23437,-0.9375 0.23438,-0.60937 0.5625,-1.17187 0.32813,-0.60938 0.70313,-1.125 0.42187,-0.5625 0.75,-0.79688 l 0.0937,-0.0469 q 0.60937,-0.42188 1.73437,-0.60938 1.125,-0.1875 2.53125,-0.42187 1.40625,-0.23438 3,-0.60938 1.59375,-0.42187 3.1875,-1.21875 1.64063,-0.84375 3.14063,-2.20312 1.5,-1.35938 2.67187,-3.51563 0.65625,-1.21875 1.73438,-1.54687 1.07812,-0.32813 2.76562,-0.32813 1.35938,0 2.25,0.5625 0.89063,0.5625 1.96875,1.21875 0.65625,0.375 0.89063,0.60938 0.28125,0.23437 0.28125,1.03125 0,0.42187 -0.32813,1.40625 -0.32812,0.98437 -0.84375,2.25 -0.46875,1.26562 -1.07812,2.67187 -0.60938,1.35938 -1.17188,2.625 -0.51562,1.26563 -0.98437,2.25 -0.42188,0.9375 -0.60938,1.3125 -0.9375,2.0625 -1.96875,4.26563 -1.03125,2.15625 -2.01562,4.26562 -0.9375,2.0625 -1.73438,3.89063 -0.75,1.82812 -1.59375,4.3125 -0.84375,2.48437 -0.28125,3.32812 0.5625,0.79688 11.01563,-11.67187 0.42187,-0.51563 0.98437,-0.75 0.60938,-0.23438 1.26563,-0.23438 1.03125,0 1.875,0.65625 0.84375,0.65625 0.84375,1.92188 0,0.75 -0.84375,2.10937 -0.84375,1.3125 -3.42188,4.3125 -2.57812,3 -6.04687,7.21875 -3.46875,4.21875 -6,5.57813 -2.53125,1.3125 -4.73438,1.125 -2.15625,-0.1875 -3.28125,-2.95313 -1.07812,-2.76562 -0.70312,-7.73437 0.42187,-5.01563 2.71875,-11.34375 2.29687,-6.375 3.5625,-8.29688 z"
         style="font-style:normal;font-variant:normal;font-weight:normal;font-stretch:normal;font-size:96px;font-family:'Black Street';-inkscape-font-specification:'Black Street';fill:#ffffff;fill-opacity:1"
         id="path835"
         inkscape:connector-curvature="0" />
      <path
         d="m 360.51953,321.58521 q 0.65625,-0.51562 1.40625,-0.75 0.75,-0.23437 1.54688,-0.23437 1.59375,0 2.85937,0.89062 1.26563,0.89063 1.26563,2.57813 0,0.9375 -0.375,2.48437 -0.32813,1.54688 -0.89063,3.42188 -0.5625,1.875 -1.26562,3.89062 -0.70313,2.01563 -1.35938,3.9375 -0.65625,1.875 -1.26562,3.51563 -0.5625,1.59375 -0.89063,2.625 -0.51562,4.26562 3.32813,1.64062 3.84375,-2.625 5.4375,-5.25 1.59375,-2.67187 2.01562,-3.09375 0.46875,-0.42187 1.21875,-0.42187 0.89063,0 1.64063,0.9375 0.79687,0.9375 0,2.53125 -0.75,1.59375 -0.98438,1.92187 -6.75,11.15625 -11.57812,11.85938 -4.82813,0.65625 -7.17188,-4.03125 -4.07812,3.28125 -5.90625,3.84375 -1.78125,0.51562 -3.70312,0.51562 -2.71875,0 -4.45313,-1.07812 -1.73437,-1.07813 -2.71875,-2.8125 -0.98437,-1.78125 -1.35937,-3.98438 -0.375,-2.20312 -0.375,-4.45312 0,-4.07813 1.54687,-7.82813 1.54688,-3.79687 4.21875,-6.70312 2.67188,-2.90625 6.28125,-4.64063 3.65625,-1.73437 7.82813,-1.73437 0.9375,0 1.82812,0.14062 0.9375,0.0937 1.875,0.28125 z m -7.6875,8.76563 q -3.60937,2.29687 -5.48437,6.46875 -1.82813,4.125 -1.125,6.9375 0.70312,2.8125 4.96875,-2.01563 4.3125,-4.82812 5.10937,-8.10937 0.84375,-3.32813 0.51563,-4.45313 -0.32813,-1.17187 -3.98438,1.17188 z"
         style="font-style:normal;font-variant:normal;font-weight:normal;font-stretch:normal;font-size:96px;font-family:'Black Street';-inkscape-font-specification:'Black Street';fill:#ffffff;fill-opacity:1"
         id="path837"
         inkscape:connector-curvature="0" />
    </g>
  </g>
</svg>
